[Header]
FileType HTR
DataType HTRS
FileVersion 1
NumSegments 64
NumFrames 4
DataFrameRate 24
EulerRotationOrder ZYX
CalibrationUnits mm
RotationUnits Degrees
GlobalAxisofGravity Y
BoneLengthAxis Y
ScaleFactor 1.0
[SegmentNames&Hierarchy]
Hips	GLOBAL
Spine	Hips
Spine1	Spine
Spine2	Spine1
Neck	Spine2
Head	Neck
LeftEye	Head
RightEye	Head
LeftShoulder	Spine2
LeftArm	LeftShoulder
LeftForeArm	LeftArm
LeftHand	LeftForeArm
LeftHandThumb1	LeftHand
LeftHandThumb2	LeftHandThumb1
LeftHandThumb3	LeftHandThumb2
LeftHandThumb4	LeftHandThumb3
LeftHandIndex1	LeftHand
LeftHandIndex2	LeftHandIndex1
LeftHandIndex3	LeftHandIndex2
LeftHandIndex4	LeftHandIndex3
LeftHandMiddle1	LeftHand
LeftHandMiddle2	LeftHandMiddle1
LeftHandMiddle3	LeftHandMiddle2
LeftHandMiddle4	LeftHandMiddle3
LeftHandRing1	LeftHand
LeftHandRing2	LeftHandRing1
LeftHandRing3	LeftHandRing2
LeftHandRing4	LeftHandRing3
LeftHandPinky1	LeftHand
LeftHandPinky2	LeftHandPinky1
LeftHandPinky3	LeftHandPinky2
LeftHandPinky4	LeftHandPinky3
RightShoulder	Spine2
RightArm	RightShoulder
RightForeArm	RightArm
RightHand	RightForeArm
RightHandPinky1	RightHand
RightHandPinky2	RightHandPinky1
RightHandPinky3	RightHandPinky2
RightHandPinky4	RightHandPinky3
RightHandRing1	RightHand
RightHandRing2	RightHandRing1
RightHandRing3	RightHandRing2
RightHandRing4	RightHandRing3
RightHandMiddle1	RightHand
RightHandMiddle2	RightHandMiddle1
RightHandMiddle3	RightHandMiddle2
RightHandMiddle4	RightHandMiddle3
RightHandIndex1	RightHand
RightHandIndex2	RightHandIndex1
RightHandIndex3	RightHandIndex2
RightHandIndex4	RightHandIndex3
RightHandThumb1	RightHand
RightHandThumb2	RightHandThumb1
RightHandThumb3	RightHandThumb2
RightHandThumb4	RightHandThumb3
LeftUpLeg	Hips
LeftLeg	LeftUpLeg
LeftFoot	LeftLeg
LeftToeBase	LeftFoot
RightUpLeg	Hips
RightLeg	RightUpLeg
RightFoot	RightLeg
RightToeBase	RightFoot
[BasePosition]
Hips	0	0	0	0	0	0	1
Spine	0	0	0	0	0	0	1
Spine1	0	0	0	0	0	0	1
Spine2	0	0	0	0	0	0	1
Neck	0	0	0	0	0	0	1
Head	0	0	0	0	0	0	1
LeftEye	0	0	0	0	0	0	1
RightEye	0	0	0	0	0	0	1
LeftShoulder	0	0	0	0	0	0	1
LeftArm	0	0	0	0	0	0	1
LeftForeArm	0	0	0	0	0	0	1
LeftHand	0	0	0	0	0	0	1
LeftHandThumb1	0	0	0	0	0	0	1
LeftHandThumb2	0	0	0	0	0	0	1
LeftHandThumb3	0	0	0	0	0	0	1
LeftHandThumb4	0	0	0	0	0	0	1
LeftHandIndex1	0	0	0	0	0	0	1
LeftHandIndex2	0	0	0	0	0	0	1
LeftHandIndex3	0	0	0	0	0	0	1
LeftHandIndex4	0	0	0	0	0	0	1
LeftHandMiddle1	0	0	0	0	0	0	1
LeftHandMiddle2	0	0	0	0	0	0	1
LeftHandMiddle3	0	0	0	0	0	0	1
LeftHandMiddle4	0	0	0	0	0	0	1
LeftHandRing1	0	0	0	0	0	0	1
LeftHandRing2	0	0	0	0	0	0	1
LeftHandRing3	0	0	0	0	0	0	1
LeftHandRing4	0	0	0	0	0	0	1
LeftHandPinky1	0	0	0	0	0	0	1
LeftHandPinky2	0	0	0	0	0	0	1
LeftHandPinky3	0	0	0	0	0	0	1
LeftHandPinky4	0	0	0	0	0	0	1
RightShoulder	0	0	0	0	0	0	1
RightArm	0	0	0	0	0	0	1
RightForeArm	0	0	0	0	0	0	1
RightHand	0	0	0	0	0	0	1
RightHandPinky1	0	0	0	0	0	0	1
RightHandPinky2	0	0	0	0	0	0	1
RightHandPinky3	0	0	0	0	0	0	1
RightHandPinky4	0	0	0	0	0	0	1
RightHandRing1	0	0	0	0	0	0	1
RightHandRing2	0	0	0	0	0	0	1
RightHandRing3	0	0	0	0	0	0	1
RightHandRing4	0	0	0	0	0	0	1
RightHandMiddle1	0	0	0	0	0	0	1
RightHandMiddle2	0	0	0	0	0	0	1
RightHandMiddle3	0	0	0	0	0	0	1
RightHandMiddle4	0	0	0	0	0	0	1
RightHandIndex1	0	0	0	0	0	0	1
RightHandIndex2	0	0	0	0	0	0	1
RightHandIndex3	0	0	0	0	0	0	1
RightHandIndex4	0	0	0	0	0	0	1
RightHandThumb1	0	0	0	0	0	0	1
RightHandThumb2	0	0	0	0	0	0	1
RightHandThumb3	0	0	0	0	0	0	1
RightHandThumb4	0	0	0	0	0	0	1
LeftUpLeg	0	0	0	0	0	0	1
LeftLeg	0	0	0	0	0	0	1
LeftFoot	0	0	0	0	0	0	1
LeftToeBase	0	0	0	0	0	0	1
RightUpLeg	0	0	0	0	0	0	1
RightLeg	0	0	0	0	0	0	1
RightFoot	0	0	0	0	0	0	1
RightToeBase	0	0	0	0	0	0	1
[Hips]
13	6.877821922	1016.47406	18.72444153	-0.9120606184	1.528984904	-5.583605289	1.0
14	7.031241417	1016.56134	18.84220314	-0.8771319985	1.530368447	-5.582596302	1.0
15	7.21204567	1016.655518	18.96167374	-0.8442041874	1.545495629	-5.576236248	1.0
16	7.406984329	1016.698364	19.09501648	-0.8159114122	1.562562227	-5.572212219	1.0
[Spine]
13	0	101.8159943	1.315000057	1.138805985	-1.250263691	2.935081244	1.0
14	0	101.8159943	1.315000057	1.135987759	-1.248928666	2.917462587	1.0
15	0	101.8159943	1.315000057	1.12440443	-1.235263348	2.90405488	1.0
16	0	101.8159943	1.315000057	1.116286993	-1.22832489	2.905540943	1.0
[Spine1]
13	0	100.8349991	-10.00800037	0.5556119084	0.1815280616	5.939602375	1.0
14	0	100.8349991	-10.00800037	0.5296531916	0.1798523068	5.939390659	1.0
15	0	100.8349991	-10.00800037	0.5029779673	0.1800867617	5.940618992	1.0
16	0	100.8349991	-10.00800037	0.4744679332	0.1791681647	5.943889141	1.0
[Spine2]
13	0	91	-13.73399925	0.5894103646	0.7154964209	5.851942539	1.0
14	0	91	-13.73399925	0.5633358359	0.71636796	5.851469994	1.0
15	0	91	-13.73399925	0.5365201235	0.7192350626	5.852445126	1.0
16	0	91	-13.73399925	0.5078722239	0.7210716009	5.85543251	1.0
[Neck]
13	0	166.7169952	-25.16200066	1.146911383	-0.2055871487	-2.200267553	1.0
14	0	166.7169952	-25.16200066	1.163360476	-0.2016588002	-2.198159933	1.0
15	0	166.7169952	-25.16200066	1.189203382	-0.199100256	-2.209984303	1.0
16	0	166.7169952	-25.16200066	1.211864829	-0.1932515204	-2.228149891	1.0
[Head]
13	0	96.17900085	16.84999847	1.389858603	1.024296403	-8.243200302	1.0
14	0	96.17900085	16.84999847	1.400376678	1.051956654	-8.258816719	1.0
15	0	96.17900085	16.84999847	1.423035622	1.053281307	-8.264059067	1.0
16	0	96.17900085	16.84999847	1.429464936	1.06348896	-8.281747818	1.0
[LeftEye]
13	30.6760006	64.09500122	92.83599854	0	0	0	1.0
14	30.6760006	64.09500122	92.83599854	0	0	0	1.0
15	30.6760006	64.09500122	92.83599854	0	0	0	1.0
16	30.6760006	64.09500122	92.83599854	0	0	0	1.0
[RightEye]
13	-30.6760006	64.09500122	92.83499908	0	0	0	1.0
14	-30.6760006	64.09500122	92.83499908	0	0	0	1.0
15	-30.6760006	64.09500122	92.83499908	0	0	0	1.0
16	-30.6760006	64.09500122	92.83499908	0	0	0	1.0
[LeftShoulder]
13	45.70400238	109.4599991	-26.28000069	4.853083134	-13.29531765	-4.561860085	1.0
14	45.70400238	109.4599991	-26.28000069	4.846051693	-13.2994833	-4.335747719	1.0
15	45.70400238	109.4599991	-26.28000069	4.839320183	-13.33442402	-4.11166048	1.0
16	45.70400238	109.4599991	-26.28000069	4.833561897	-13.3483305	-3.876115799	1.0
[LeftArm]
13	105.923996	-5.24600029	-22.32099915	-3.168555975	4.449948788	-85.08721161	1.0
14	105.923996	-5.24600029	-22.32099915	-3.153412819	4.447958946	-85.28630066	1.0
15	105.923996	-5.24600029	-22.32099915	-3.149759531	4.446452618	-85.49183655	1.0
16	105.923996	-5.24600029	-22.32099915	-3.182756662	4.440789223	-85.74215698	1.0
[LeftForeArm]
13	278.414978	-0.0009999999311	0	-3.406740234e-06	-14.553545	-0.0002094566298	1.0
14	278.414978	-0.0009999999311	0	-6.776007808e-07	-14.55730438	-0.0002197943395	1.0
15	278.414978	-0.0009999999311	0	5.658755981e-06	-14.55422974	-0.0002278274187	1.0
16	278.414978	-0.0009999999311	0	8.101782441e-06	-14.54425716	-0.0002366639383	1.0
[LeftHand]
13	283.2879944	0	0	-27.9740448	-1.174071074	-10.34291363	1.0
14	283.2879944	0	0	-28.00823402	-1.17437923	-10.39418507	1.0
15	283.2879944	0	0	-28.02884674	-1.191549301	-10.45359421	1.0
16	283.2879944	0	0	-28.03940582	-1.209907174	-10.48037624	1.0
[LeftHandThumb1]
13	24.6609993	-15.75	26.8239994	17.95722771	-4.193142414	10.00129223	1.0
14	24.6609993	-15.75	26.8239994	17.93678093	-4.241684437	9.965729713	1.0
15	24.6609993	-15.75	26.8239994	17.91540146	-4.292634487	9.928444862	1.0
16	24.6609993	-15.75	26.8239994	17.89291191	-4.346464157	9.889130592	1.0
[LeftHandThumb2]
13	32.29800034	-18.64699936	18.64699936	-0.612054944	32.38290405	-2.941836596	1.0
14	32.29800034	-18.64699936	18.64699936	-0.6357266307	32.32177353	-2.95525074	1.0
15	32.29800034	-18.64699936	18.64699936	-0.6605145335	32.25764084	-2.969265699	1.0
16	32.29800034	-18.64699936	18.64699936	-0.6866751909	32.18993378	-2.984054565	1.0
[LeftHandThumb3]
13	26.52600098	-15.31499958	15.31499958	1.980552435	8.925006866	-0.1168860942	1.0
14	26.52600098	-15.31499958	15.31499958	1.963975668	8.864081383	-0.1319852173	1.0
15	26.52600098	-15.31499958	15.31499958	1.94659853	8.800172806	-0.1478179991	1.0
16	26.52600098	-15.31499958	15.31499958	1.928285122	8.732682228	-0.1644961983	1.0
[LeftHandThumb4]
13	19.54599953	-11.28499985	11.28499985	0	0	0	1.0
14	19.54599953	-11.28499985	11.28499985	0	0	0	1.0
15	19.54599953	-11.28499985	11.28499985	0	0	0	1.0
16	19.54599953	-11.28499985	11.28499985	0	0	0	1.0
[LeftHandIndex1]
13	91.09299469	-5.170999527	22.60099792	-0.3128036559	4.683891773	-7.985841751	1.0
14	91.09299469	-5.170999527	22.60099792	-0.3145942092	4.685975552	-8.007730484	1.0
15	91.09299469	-5.170999527	22.60099792	-0.3164738715	4.688158035	-8.03067112	1.0
16	91.09299469	-5.170999527	22.60099792	-0.3184564114	4.690463543	-8.054894447	1.0
[LeftHandIndex2]
13	36.76399994	0	0	-0.6350651383	2.783036947	-20.71391106	1.0
14	36.76399994	0	0	-0.6361270547	2.784990072	-20.73577881	1.0
15	36.76399994	0	0	-0.6372357011	2.787036657	-20.75868034	1.0
16	36.76399994	0	0	-0.6384131908	2.78919363	-20.78287125	1.0
[LeftHandIndex3]
13	28.83100128	0	0	-0.1122508198	0.8194609284	-10.31123543	1.0
14	28.83100128	0	0	-0.1126514152	0.8216215372	-10.33304787	1.0
15	28.83100128	0	0	-0.1130611598	0.8238797188	-10.35587883	1.0
16	28.83100128	0	0	-0.1135000437	0.8262678385	-10.38003922	1.0
[LeftHandIndex4]
13	23.92700005	0	0	0	0	0	1.0
14	23.92700005	0	0	0	0	0	1.0
15	23.92700005	0	0	0	0	0	1.0
16	23.92700005	0	0	0	0	0	1.0
[LeftHandMiddle1]
13	95.33399963	0	0	-1.53889215	8.688004494	-16.02347183	1.0
14	95.33399963	0	0	-1.541559577	8.6895895	-16.04559326	1.0
15	95.33399963	0	0	-1.544362783	8.691252708	-16.06873703	1.0
16	95.33399963	0	0	-1.547308922	8.693005562	-16.0931778	1.0
[LeftHandMiddle2]
13	36.98199844	0	0	-1.436599135	3.833882809	-33.55909729	1.0
14	36.98199844	0	0	-1.438101292	3.835506439	-33.58105087	1.0
15	36.98199844	0	0	-1.439684629	3.837212563	-33.60403824	1.0
16	36.98199844	0	0	-1.441358328	3.839010239	-33.62831879	1.0
[LeftHandMiddle3]
13	29.50900078	0	0	-0.1522772312	1.499250293	-12.40538025	1.0
14	29.50900078	0	0	-0.1527853012	1.501358867	-12.42719078	1.0
15	29.50900078	0	0	-0.1533147842	1.503574848	-12.45007515	1.0
16	29.50900078	0	0	-0.1538811177	1.505912066	-12.47422791	1.0
[LeftHandMiddle4]
13	28.3390007	0	0	0	0	0	1.0
14	28.3390007	0	0	0	0	0	1.0
15	28.3390007	0	0	0	0	0	1.0
16	28.3390007	0	0	0	0	0	1.0
[LeftHandRing1]
13	91.04499817	-0.4390000105	-18.65100098	-2.967505932	11.52390957	-26.53859711	1.0
14	91.04499817	-0.4390000105	-18.65100098	-2.958858728	11.51983261	-26.47338295	1.0
15	91.04499817	-0.4390000105	-18.65100098	-2.949789047	11.51555824	-26.40497017	1.0
16	91.04499817	-0.4390000105	-18.65100098	-2.940214157	11.51102448	-26.33273888	1.0
[LeftHandRing2]
13	31.54000092	0	0	-1.172241092	4.023040295	-39.78567886	1.0
14	31.54000092	0	0	-1.168341875	4.017986298	-39.721138	1.0
15	31.54000092	0	0	-1.164263725	4.012672424	-39.65341568	1.0
16	31.54000092	0	0	-1.159963965	4.007063866	-39.58194733	1.0
[LeftHandRing3]
13	29.37700081	0	0	-0.08264624327	1.863412142	-18.92487907	1.0
14	29.37700081	0	0	-0.08118433505	1.857203722	-18.86081505	1.0
15	29.37700081	0	0	-0.07965367287	1.850694776	-18.79360771	1.0
16	29.37700081	0	0	-0.07805337757	1.843814731	-18.72266006	1.0
[LeftHandRing4]
13	26.47500038	0	0	0	0	0	1.0
14	26.47500038	0	0	0	0	0	1.0
15	26.47500038	0	0	0	0	0	1.0
16	26.47500038	0	0	0	0	0	1.0
[LeftHandPinky1]
13	80.77799988	-4.887000084	-38.06099701	-5.102087021	16.12202263	-36.47105408	1.0
14	80.77799988	-4.887000084	-38.06099701	-5.083460331	16.12100983	-36.40409851	1.0
15	80.77799988	-4.887000084	-38.06099701	-5.063922882	16.11994553	-36.33385849	1.0
16	80.77799988	-4.887000084	-38.06099701	-5.043300629	16.11880493	-36.25971222	1.0
[LeftHandPinky2]
13	36	0	0	-1.914560914	3.790186405	-45.24858475	1.0
14	36	0	0	-1.909761071	3.785928726	-45.18426514	1.0
15	36	0	0	-1.904738307	3.781455517	-45.1167984	1.0
16	36	0	0	-1.899439812	3.776721954	-45.04555511	1.0
[LeftHandPinky3]
13	21.14200211	0	0	-0.525698781	2.796316385	-20.1139431	1.0
14	21.14200211	0	0	-0.5229846835	2.790499449	-20.04981804	1.0
15	21.14200211	0	0	-0.5201449394	2.784386396	-19.98252869	1.0
16	21.14200211	0	0	-0.5171527267	2.777933121	-19.91149902	1.0
[LeftHandPinky4]
13	19.75699997	0	0	0	0	0	1.0
14	19.75699997	0	0	0	0	0	1.0
15	19.75699997	0	0	0	0	0	1.0
16	19.75699997	0	0	0	0	0	1.0
[RightShoulder]
13	-45.70000076	109.4620056	-26.28000069	5.050662518	2.834476709	4.595376968	1.0
14	-45.70000076	109.4620056	-26.28000069	5.086132526	2.847253323	4.401842594	1.0
15	-45.70000076	109.4620056	-26.28000069	5.122182846	2.855522871	4.173438549	1.0
16	-45.70000076	109.4620056	-26.28000069	5.158218384	2.888718605	3.925541162	1.0
[RightArm]
13	-105.9280014	-5.248000145	-22.32099915	0.1238589585	1.387476563	68.59618378	1.0
14	-105.9280014	-5.248000145	-22.32099915	0.1119511649	1.377488494	68.80419159	1.0
15	-105.9280014	-5.248000145	-22.32099915	0.09039848298	1.344809175	69.04839325	1.0
16	-105.9280014	-5.248000145	-22.32099915	0.1006169319	1.313422918	69.29690552	1.0
[RightForeArm]
13	-278.414978	0	0	3.324512363e-07	17.68045044	6.729738743e-06	1.0
14	-278.414978	0	0	-6.168279924e-06	17.68021965	-2.322562977e-05	1.0
15	-278.414978	0	0	-4.751228062e-06	17.690485	-6.786089671e-06	1.0
16	-278.414978	0	0	2.866059276e-06	17.69694138	3.023770114e-05	1.0
[RightHand]
13	-283.2879944	0	0.0009999999311	-12.87660503	-6.861483574	11.90858936	1.0
14	-283.2879944	0	0.0009999999311	-12.85267162	-6.857895851	11.89303493	1.0
15	-283.2879944	0	0.0009999999311	-12.81702518	-6.855379105	11.86314487	1.0
16	-283.2879944	0	0.0009999999311	-12.80071068	-6.853352547	11.84060478	1.0
[RightHandPinky1]
13	-80.76699829	-4.885000229	-38.06000137	-5.101996422	-16.12312508	36.47138214	1.0
14	-80.76699829	-4.885000229	-38.06000137	-5.083370686	-16.12212372	36.40443039	1.0
15	-80.76699829	-4.885000229	-38.06000137	-5.063832283	-16.12104988	36.33419037	1.0
16	-80.76699829	-4.885000229	-38.06000137	-5.043207169	-16.11991119	36.26003265	1.0
[RightHandPinky2]
13	-36	0	0.0009999999311	-1.91319108	-3.788497925	45.24854279	1.0
14	-36	0	0.0009999999311	-1.908397317	-3.784238338	45.18423462	1.0
15	-36	0	0.0009999999311	-1.9033674	-3.77976203	45.11674881	1.0
16	-36	0	0.0009999999311	-1.898069501	-3.77503109	45.04551697	1.0
[RightHandPinky3]
13	-21.14200211	0	0	-0.7467622757	0.09171385318	21.71148872	1.0
14	-21.14200211	0	0	-0.7438948154	0.0974534899	21.64750099	1.0
15	-21.14200211	0	0	-0.7408928275	0.103482157	21.58035469	1.0
16	-21.14200211	0	0	-0.7377279997	0.1098501012	21.50947571	1.0
[RightHandPinky4]
13	-19.75699997	0	0	0	0	0	1.0
14	-19.75699997	0	0	0	0	0	1.0
15	-19.75699997	0	0	0	0	0	1.0
16	-19.75699997	0	0	0	0	0	1.0
[RightHandRing1]
13	-91.03599548	-0.4390000105	-18.65100098	-2.96743989	-11.52354717	26.53874969	1.0
14	-91.03599548	-0.4390000105	-18.65100098	-2.958786964	-11.51948166	26.47351265	1.0
15	-91.03599548	-0.4390000105	-18.65100098	-2.949716091	-11.51519775	26.40511703	1.0
16	-91.03599548	-0.4390000105	-18.65100098	-2.940143108	-11.51066589	26.33288956	1.0
[RightHandRing2]
13	-31.54000092	0	0	-1.172056675	-4.022526264	39.78568649	1.0
14	-31.54000092	0	0	-1.168161869	-4.017474174	39.72118759	1.0
15	-31.54000092	0	0	-1.164084435	-4.012167454	39.65346527	1.0
16	-31.54000092	0	0	-1.159786105	-4.006558418	39.58200073	1.0
[RightHandRing3]
13	-29.37700081	0	0	-0.1297892183	0.1302625835	17.4025631	1.0
14	-29.37700081	0	0	-0.1284939349	0.1365032941	17.33855438	1.0
15	-29.37700081	0	0	-0.1271427274	0.1430546939	17.27139282	1.0
16	-29.37700081	0	0	-0.1257264912	0.1499709189	17.2005043	1.0
[RightHandRing4]
13	-26.47500038	0	0	0	0	0	1.0
14	-26.47500038	0	0	0	0	0	1.0
15	-26.47500038	0	0	0	0	0	1.0
16	-26.47500038	0	0	0	0	0	1.0
[RightHandMiddle1]
13	-95.32500458	0	0	-1.538874626	-8.687783241	16.02361488	1.0
14	-95.32500458	0	0	-1.541540265	-8.689369202	16.04570389	1.0
15	-95.32500458	0	0	-1.544332504	-8.691028595	16.06885147	1.0
16	-95.32500458	0	0	-1.547282457	-8.692781448	16.09330559	1.0
[RightHandMiddle2]
13	-36.98199844	0	0	-1.436464071	-3.833443642	33.55916977	1.0
14	-36.98199844	0	0	-1.437973142	-3.835068464	33.58109665	1.0
15	-36.98199844	0	0	-1.439555645	-3.836770058	33.60407639	1.0
16	-36.98199844	0	0	-1.441227317	-3.838567495	33.62834549	1.0
[RightHandMiddle3]
13	-29.50900078	0	0	-0.2575681806	-1.691616774	16.03998375	1.0
14	-29.50900078	0	0	-0.2582094371	-1.693688273	16.06178856	1.0
15	-29.50900078	0	0	-0.2588845491	-1.695865512	16.08468628	1.0
16	-29.50900078	0	0	-0.2595955729	-1.698161125	16.10885429	1.0
[RightHandMiddle4]
13	-28.3390007	0	0.0009999999311	0	0	0	1.0
14	-28.3390007	0	0.0009999999311	0	0	0	1.0
15	-28.3390007	0	0.0009999999311	0	0	0	1.0
16	-28.3390007	0	0.0009999999311	0	0	0	1.0
[RightHandIndex1]
13	-91.08300018	-5.167999744	22.60099792	-0.312800914	-4.683777809	7.985896587	1.0
14	-91.08300018	-5.167999744	22.60099792	-0.3145905137	-4.685859203	8.007778168	1.0
15	-91.08300018	-5.167999744	22.60099792	-0.316470772	-4.688047409	8.030743599	1.0
16	-91.08300018	-5.167999744	22.60099792	-0.3184525073	-4.69035244	8.054976463	1.0
[RightHandIndex2]
13	-36.76399994	0	0	-0.6350120306	-2.782756329	20.71395493	1.0
14	-36.76399994	0	0	-0.63607198	-2.784707069	20.73578453	1.0
15	-36.76399994	0	0	-0.6371861696	-2.786751986	20.75871468	1.0
16	-36.76399994	0	0	-0.6383632421	-2.788911581	20.78291512	1.0
[RightHandIndex3]
13	-28.83100128	0	0	-0.2419066578	-0.1711878181	13.9852066	1.0
14	-28.83100128	0	0	-0.2424371541	-0.1733143479	14.00701618	1.0
15	-28.83100128	0	0	-0.2429945171	-0.175546065	14.02987766	1.0
16	-28.83100128	0	0	-0.243583709	-0.1779007614	14.05401802	1.0
[RightHandIndex4]
13	-23.92700005	0	0	0	0	0	1.0
14	-23.92700005	0	0	0	0	0	1.0
15	-23.92700005	0	0	0	0	0	1.0
16	-23.92700005	0	0	0	0	0	1.0
[RightHandThumb1]
13	-24.64799881	-15.72700024	26.82600021	17.95689583	4.193351269	-10.00152874	1.0
14	-24.64799881	-15.72700024	26.82600021	17.93646812	4.241903782	-9.96599865	1.0
15	-24.64799881	-15.72700024	26.82600021	17.91507149	4.292849064	-9.928694725	1.0
16	-24.64799881	-15.72700024	26.82600021	17.89258003	4.346675873	-9.889373779	1.0
[RightHandThumb2]
13	-32.29800034	-18.64699936	18.64699936	-0.6128012538	-32.38157272	2.943651438	1.0
14	-32.29800034	-18.64699936	18.64699936	-0.6364653707	-32.32044601	2.957033873	1.0
15	-32.29800034	-18.64699936	18.64699936	-0.661250174	-32.25630951	2.971032619	1.0
16	-32.29800034	-18.64699936	18.64699936	-0.6874085069	-32.18859482	2.985803604	1.0
[RightHandThumb3]
13	-26.52600098	-15.31399918	15.31399918	1.764827609	-8.069799423	0.9254911542	1.0
14	-26.52600098	-15.31399918	15.31399918	1.749156475	-8.008640289	0.9402435422	1.0
15	-26.52600098	-15.31399918	15.31399918	1.732738614	-7.944495201	0.9556766748	1.0
16	-26.52600098	-15.31399918	15.31399918	1.715441227	-7.876765251	0.9719659686	1.0
[RightHandThumb4]
13	-19.54599953	-11.28499985	11.28499985	0	0	0	1.0
14	-19.54599953	-11.28499985	11.28499985	0	0	0	1.0
15	-19.54599953	-11.28499985	11.28499985	0	0	0	1.0
16	-19.54599953	-11.28499985	11.28499985	0	0	0	1.0
[LeftUpLeg]
13	82.07800293	-67.51699829	-15.99599934	-17.69878769	15.15852451	12.1306715	1.0
14	82.07800293	-67.51699829	-15.99599934	-17.70786285	15.14418983	12.11209393	1.0
15	82.07800293	-67.51699829	-15.99599934	-17.70611763	15.13000965	12.08796978	1.0
16	82.07800293	-67.51699829	-15.99599934	-17.71450806	15.12537575	12.06908035	1.0
[LeftLeg]
13	0	-443.7049866	2.845999956	25.47626877	7.567995548	6.218673706	1.0
14	0	-443.7049866	2.845999956	25.43727112	7.574555397	6.214495659	1.0
15	0	-443.7049866	2.845999956	25.37903786	7.586124897	6.201592445	1.0
16	0	-443.7049866	2.845999956	25.35164642	7.596322536	6.189641953	1.0
[LeftFoot]
13	0	-444.2789917	-29.8219986	-4.239334583	2.753140688	-11.20133209	1.0
14	0	-444.2789917	-29.8219986	-4.238850594	2.774201393	-11.19514084	1.0
15	0	-444.2789917	-29.8219986	-4.251434326	2.784219265	-11.18696213	1.0
16	0	-444.2789917	-29.8219986	-4.274859428	2.77609539	-11.1801796	1.0
[LeftToeBase]
13	0	-87.28699493	107.1060028	-0.4863614738	5.318689546e-06	-1.94643394e-06	1.0
14	0	-87.28699493	107.1060028	-0.4895036519	2.142846643e-05	-3.83691804e-06	1.0
15	0	-87.28699493	107.1060028	-0.4898839295	2.560979192e-05	1.534603825e-06	1.0
16	0	-87.28699493	107.1060028	-0.4899521768	-1.911061918e-05	3.729422815e-06	1.0
[RightUpLeg]
13	-82.07800293	-67.51699829	-15.99599934	-1.82504499	-4.509642601	11.08539391	1.0
14	-82.07800293	-67.51699829	-15.99599934	-1.81624341	-4.508265972	11.07765484	1.0
15	-82.07800293	-67.51699829	-15.99599934	-1.80722487	-4.514770985	11.0608654	1.0
16	-82.07800293	-67.51699829	-15.99599934	-1.816324711	-4.519062996	11.0445137	1.0
[RightLeg]
13	0	-443.7049866	2.861999989	11.27132225	-5.688822269	2.090659142	1.0
14	0	-443.7049866	2.861999989	11.19447231	-5.67673111	2.096680641	1.0
15	0	-443.7049866	2.861999989	11.11939812	-5.669981003	2.105066061	1.0
16	0	-443.7049866	2.861999989	11.09270287	-5.662438869	2.110645771	1.0
[RightFoot]
13	0	-444.2770081	-29.83799934	-9.790369987	-0.3340612948	-7.869680882	1.0
14	0	-444.2770081	-29.83799934	-9.755092621	-0.3313792646	-7.861533642	1.0
15	0	-444.2770081	-29.83799934	-9.722082138	-0.3285756111	-7.852395535	1.0
16	0	-444.2770081	-29.83799934	-9.713884354	-0.3270568848	-7.841316223	1.0
[RightToeBase]
13	0	-87.28699493	107.1060028	-0.6228148341	1.055930898e-05	2.213916787e-06	1.0
14	0	-87.28699493	107.1060028	-0.6207970381	4.807285222e-06	-1.648854067e-07	1.0
15	0	-87.28699493	107.1060028	-0.6169492006	-8.036938652e-07	-9.649094181e-07	1.0
16	0	-87.28699493	107.1060028	-0.6152419448	2.852730631e-06	1.17753666e-06	1.0
[EndOfFile]
